<svg width="87" height="32" viewBox="0 0 87 32" fill="none" xmlns="http://www.w3.org/2000/svg">
<g clip-path="url(#clip0_73_103)">
<path d="M46.4058 3.08416C46.9815 2.90745 47.6104 3.05497 48.1379 3.28547C48.5066 3.49573 48.8752 3.70822 49.2881 3.84579C49.3196 3.89835 49.3853 4.00236 49.4168 4.05381C49.4004 4.08848 49.3689 4.16006 49.3524 4.19473C49.6466 4.78748 49.8347 5.48983 49.5494 6.11267C49.355 6.32292 49.0166 6.35547 48.7427 6.43689C48.7414 6.73774 48.7957 7.03534 48.8247 7.33396C49.4105 7.41784 49.9064 7.05659 50.4859 7.09238C50.5642 6.80495 50.626 6.51283 50.7298 6.2311C50.8497 6.41788 50.8547 6.63272 50.856 6.84298C51.0075 6.881 51.1616 6.91568 51.3166 6.94912C51.3181 7.00067 51.3192 7.10357 51.3192 7.15501C53.8593 7.16843 56.3981 7.14483 58.9383 7.16732C58.932 7.24426 58.9196 7.39871 58.9145 7.47599C58.9802 7.47599 59.114 7.47711 59.1807 7.47711C59.1781 7.06789 59.1807 6.65733 59.1794 6.2481C59.2438 6.24576 59.37 6.2424 59.4332 6.24128C59.4347 6.56338 59.4358 6.88548 59.4396 7.20769C59.495 7.26808 59.6061 7.38876 59.6619 7.44915C59.7036 7.40542 59.7868 7.31953 59.8283 7.2758C60.0215 7.43584 59.9116 7.65505 59.9031 7.85166C60.6138 7.84484 61.3319 7.88734 62.0404 7.83589C62.0935 7.80122 62.1995 7.733 62.2525 7.69844C62.3499 7.73188 62.4482 7.76555 62.5454 7.80022C62.8648 7.79328 63.1855 7.79239 63.5062 7.79127C63.4996 7.93778 63.4945 8.08418 63.4882 8.2308C63.0754 8.22509 62.6613 8.21738 62.2548 8.2799C61.9922 8.07981 61.64 8.14334 61.3231 8.13574C60.8358 8.15587 60.3331 8.07982 59.8611 8.21727C59.5806 8.28661 59.2728 8.26994 59.0254 8.12891C58.9658 8.25977 59.0569 8.55279 58.808 8.54149C57.8283 8.55279 56.8499 8.53377 55.8715 8.54719C55.7377 8.60982 55.6026 8.6691 55.469 8.72714C55.3276 9.10069 54.9223 9.34998 54.5774 9.57813C54.5345 10.1519 54.7908 10.6876 54.8905 11.2444C54.6974 11.2935 54.503 11.3441 54.3123 11.4C54.0384 11.9726 54.2063 12.7543 53.5725 13.1538C53.0865 13.4042 52.7648 13.9488 52.1093 13.8628C52.4426 14.1089 52.0184 14.0317 52.0626 13.8349C50.8771 13.742 49.8785 13.1258 48.8483 12.6562C48.8004 12.9133 48.7247 13.1662 48.6463 13.4178C49.0377 13.4838 49.3609 13.7388 49.4303 14.0944C49.5553 14.8696 49.3053 15.6392 49.3091 16.4163C49.3369 16.8727 49.116 17.2908 48.8408 17.6633C48.5996 17.9048 48.2196 17.6564 47.9305 17.6208C47.8647 17.7337 47.8005 17.8468 47.7374 17.9607C47.8194 18.2648 47.8548 18.5813 47.9697 18.8788C48.6148 19.5107 49.2018 20.1953 49.6525 20.9502C50.1165 21.8052 50.5299 22.6809 50.8911 23.5739C50.9264 23.7473 51.1107 23.8096 51.2725 23.8725C51.294 24.0514 51.3155 24.2301 51.3357 24.4114C51.3988 24.4931 51.4632 24.5746 51.5288 24.6574C51.568 25.7602 51.4152 26.8584 51.2218 27.9466C51.1021 28.4377 51.4263 28.9173 51.295 29.4117C51.3102 29.6648 51.1135 29.8559 51.021 30.0796C51.0034 30.6019 50.9743 31.1308 51.039 31.6522C51.0842 32.0347 51.4493 32.2806 51.6967 32.5659C51.9669 32.8199 52.1929 33.1609 52.6019 33.2514C52.987 33.3531 53.3544 33.5008 53.6937 33.6944C53.7972 33.9213 53.7783 34.162 53.7291 34.3977C52.9892 34.5185 52.2343 34.4582 51.4869 34.4684C50.911 34.4951 50.3974 34.2211 49.8379 34.164C49.2963 34.1519 48.636 34.39 48.2196 33.9605C48.3961 33.3647 48.4103 32.7247 48.7332 32.1688C48.8367 31.5392 48.64 30.9005 48.6814 30.2652C48.6198 30.2194 48.4959 30.1277 48.434 30.0816C48.4784 29.6668 48.2473 29.2976 48.1701 28.9007C48.1199 28.321 48.0603 27.7419 47.9846 27.1648C47.9252 26.8841 48.0893 26.627 48.3128 26.4402C48.333 26.1159 48.3825 25.7948 48.4176 25.4728C48.3633 25.2635 48.1752 25.1082 48.054 24.9293C47.6487 25.0805 47.1021 25.0088 46.8609 24.6574C46.2892 23.9037 45.7184 23.1499 45.1402 22.4004C44.9129 22.3871 44.6731 22.4083 44.461 22.3278C44.2163 22.1053 44.0886 21.8089 43.9323 21.5383C43.7087 21.7608 43.725 22.1018 43.4601 22.3044C42.8996 22.7809 42.7506 23.481 42.4577 24.0916C42.2332 24.4874 42.3595 24.9649 42.1092 25.3509C41.9754 25.5588 41.6396 25.6002 41.5512 25.8375C41.4351 26.0934 41.2987 26.3586 41.0273 26.5142C40.7332 26.6851 40.655 27.0097 40.5238 27.2779C40.4039 27.5252 40.5819 27.7845 40.5403 28.0385C40.3534 28.845 39.7739 29.5193 39.5303 30.309C39.4192 30.6646 39.26 31.065 38.7929 31.1409C38.2614 31.982 37.9686 33.011 38.2691 33.958C38.4534 34.2555 38.4433 34.5899 38.3865 34.9175C37.542 34.9758 36.6758 35.0764 35.8465 34.8673C35.6521 34.5261 35.6799 34.1246 35.7203 33.7559C35.9764 32.786 36.3161 31.8332 36.5243 30.8535C36.2643 30.6488 36.325 30.3358 36.3299 30.0617C36.3212 29.5506 36.7137 29.1413 36.9864 28.7219C37.0888 28.2913 37.0408 27.8286 37.2919 27.4335C37.5874 26.9391 37.8373 26.4046 38.2932 26.0053C38.3802 25.653 38.6733 25.3869 38.7917 25.0477C38.918 24.748 38.697 24.4438 38.7415 24.1374C38.8499 23.2078 39.0407 22.2875 39.2061 21.3648C38.8931 21.1333 38.994 20.7655 38.8942 20.4533C38.9435 20.3303 39.0053 20.213 39.0798 20.0988C39.0015 20.035 38.9247 19.9702 38.8463 19.9065C38.922 19.5785 38.9005 18.9913 39.4687 19.0979C39.504 18.012 39.0786 16.9607 39.2212 15.8735C39.297 15.9517 39.3713 16.0312 39.4472 16.1106L39.4068 15.7426C39.6441 15.6308 39.8966 15.5447 40.1618 15.5011C39.73 15.4508 39.3096 15.3535 38.8864 15.2662C38.7841 15.0279 38.8412 14.7741 38.8788 14.5303C39.043 13.7071 39.1036 12.8728 39.1376 12.0385C39.6161 11.8911 40.1438 12.0162 40.6109 11.8193C40.466 10.7758 40.4294 9.68662 40.8483 8.68554C41.1854 7.83321 41.8294 7.01119 42.8342 6.71157C43.3089 6.61102 43.906 6.49795 44.2416 6.90617C44.3337 6.83124 44.4259 6.75407 44.5181 6.67913C43.7519 5.33102 44.6671 3.36152 46.4058 3.08416ZM52.5375 8.93114C52.3355 9.04074 52.1373 9.16611 52.3497 9.36519C52.2462 9.41988 52.1424 9.47256 52.0376 9.52277C51.8735 9.63461 51.5048 9.69825 51.5478 9.92439C51.7321 10.1867 51.891 10.4624 52.0226 10.7485C52.4252 10.4556 52.7458 10.0617 52.963 9.64479C53.0084 9.60341 53.1007 9.52065 53.146 9.48027C53.1258 9.28903 53.0779 9.10214 52.9933 8.92555C52.8418 8.9279 52.689 8.93002 52.5375 8.93114Z" fill="#D5DAD6"/>
<path d="M56.2419 18.943C56.8199 18.2967 57.7542 17.9387 58.6807 17.9521C61.4998 17.9545 64.3202 17.951 67.1393 17.9533C68.5144 17.979 69.855 18.9308 70.0141 20.1679C66.1118 20.1564 62.2105 20.178 58.3097 20.1564C58.3059 22.4693 58.3008 24.7833 58.3097 27.0974C61.3043 27.093 64.2986 27.0884 67.2934 27.0996C67.2819 26.2709 67.297 25.4422 67.2846 24.6135C65.8038 24.621 64.3228 24.6236 62.8419 24.6135C61.6541 24.5732 60.7703 23.664 60.5028 22.6955C63.6868 22.6854 66.8695 22.6843 70.0532 22.6966C70.0396 24.1136 70.061 25.5319 70.0418 26.9489C70.004 28.1422 68.8451 29.1925 67.5169 29.3121C64.4453 29.3121 61.3724 29.311 58.3008 29.311C57.383 29.3052 56.5712 28.7919 56.0536 28.1511C55.7001 27.6981 55.6205 27.1356 55.5701 26.602C55.565 24.7008 55.5726 22.7984 55.5674 20.8971C55.5791 20.2079 55.7167 19.48 56.2419 18.943ZM74.867 18.0303C75.1842 17.9543 75.5147 17.9488 75.8419 17.9521C78.4476 17.9591 81.0546 17.9444 83.6604 17.9577C85.1375 18.0137 86.4352 19.1435 86.4921 20.4562C86.4948 22.5779 86.4948 24.7005 86.4921 26.8235C86.4656 28.1241 85.1653 29.3364 83.6745 29.3142C80.8087 29.303 77.9429 29.322 75.0768 29.3052C73.6477 29.1643 72.5506 27.9554 72.5405 26.7038C72.5203 24.7689 72.5431 22.8318 72.5292 20.8971C72.5178 20.3267 72.634 19.7407 72.9748 19.2486C73.3749 18.63 74.092 18.1971 74.867 18.0303ZM75.3166 20.0951C75.3216 22.4818 75.3052 24.8694 75.3242 27.2561C78.1231 27.2629 80.9235 27.255 83.7223 27.2592C83.7308 24.8705 83.7235 22.4815 83.7258 20.0914C80.9232 20.0905 78.1193 20.0862 75.3166 20.0951ZM3.00445 20.6632C3.06392 19.3693 4.28713 18.1535 5.77558 18.1031C8.55669 18.1008 11.3392 18.1008 14.1205 18.1042C15.6229 18.0909 16.8742 19.2932 16.9876 20.5827C16.7869 20.5974 16.5862 20.6083 16.3854 20.6107C13.0739 20.6074 9.76248 20.6118 6.45214 20.6083C6.45076 22.693 6.43838 24.7776 6.45846 26.8624C9.97331 26.8578 13.4868 26.8556 17.0015 26.8636C16.9018 28.1999 15.6316 29.3857 14.1005 29.4382C11.5806 29.4696 9.06067 29.4393 6.54064 29.4528C5.91319 29.4719 5.26681 29.4024 4.70135 29.1485C3.72672 28.7069 3.03728 27.8064 3.00344 26.829C3.00067 24.7734 2.99688 22.7187 3.00445 20.6632ZM19.6641 19.65C20.1274 18.754 21.1879 18.0887 22.3166 18.1009C25.0941 18.1032 27.8728 18.1009 30.6516 18.102C32.1021 18.1098 33.3797 19.2348 33.4821 20.5044C29.8183 20.5503 26.152 20.511 22.4872 20.5234C22.4707 21.1766 22.4784 21.8297 22.4771 22.4839C25.2015 22.4916 27.9272 22.4861 30.6516 22.4861C31.4595 22.5141 32.308 22.7435 32.8583 23.297C33.4768 23.7869 33.7383 24.5329 33.7585 25.2509C33.7722 25.9678 33.7722 26.6882 33.6409 27.3981C33.3404 28.5479 32.0994 29.4046 30.7752 29.4415C28.1267 29.4638 25.4765 29.4438 22.8279 29.4527C22.2032 29.464 21.5568 29.3845 21.0024 29.115C20.1237 28.7089 19.4925 27.8922 19.4055 27.0156C23.1349 27.0315 26.8655 27.0257 30.5948 27.018C30.6037 26.3221 30.5986 25.6266 30.5986 24.931C27.8388 24.9143 25.0778 24.9287 22.3166 24.9241C20.7298 24.9354 19.326 23.6435 19.3686 22.2423C19.4242 21.3789 19.1996 20.4519 19.6641 19.65ZM87.3543 18.3336C87.7052 18.3258 88.06 18.3135 88.4097 18.3605C88.2468 18.3974 88.0812 18.4164 87.9148 18.4186C87.8933 18.7554 87.8908 19.092 87.8959 19.4284C87.8593 19.4284 87.7874 19.4284 87.752 19.4295C87.7545 19.084 87.7583 18.7384 87.7532 18.3939C87.6547 18.4008 87.4591 18.4164 87.3618 18.423L87.3543 18.3336ZM88.6065 18.3211C88.6811 18.3246 88.8325 18.3313 88.9085 18.3346C89.0158 18.6376 89.1421 18.9351 89.2986 19.2225C89.4451 18.9329 89.541 18.6241 89.7026 18.3425C89.7733 18.3335 89.9147 18.3145 89.9851 18.3056C89.946 18.7171 90.1063 19.1723 89.8554 19.547C89.8099 19.1824 89.8288 18.8154 89.8022 18.4497C89.6102 18.7909 89.5195 19.1744 89.2683 19.4899C89.0763 19.1657 88.9943 18.7964 88.7646 18.4903C88.7496 18.8169 88.757 19.1446 88.752 19.472L88.6169 19.4585C88.6167 19.0796 88.6104 18.7003 88.6065 18.3211Z" fill="#D5DAD6"/>
<path d="M46.4058 3.08416C46.9815 2.90745 47.6104 3.05497 48.1379 3.28547C48.5066 3.49573 48.8752 3.70822 49.2881 3.84579C49.3196 3.89835 49.3853 4.00236 49.4168 4.05381C49.4004 4.08848 49.3689 4.16006 49.3524 4.19473C49.6466 4.78748 49.8347 5.48983 49.5494 6.11267C49.355 6.32292 49.0166 6.35547 48.7427 6.43689C48.7414 6.73774 48.7957 7.03534 48.8247 7.33396C49.4105 7.41784 49.9064 7.05659 50.4859 7.09238C50.5642 6.80495 50.626 6.51283 50.7298 6.2311C50.8497 6.41788 50.8547 6.63272 50.856 6.84298C51.0075 6.881 51.1616 6.91568 51.3166 6.94912C51.3181 7.00067 51.3192 7.10357 51.3192 7.15501C53.8593 7.16843 56.3981 7.14483 58.9383 7.16732C58.932 7.24426 58.9196 7.39871 58.9145 7.47599C58.9802 7.47599 59.114 7.47711 59.1807 7.47711C59.1781 7.06789 59.1807 6.65733 59.1794 6.2481C59.2438 6.24576 59.37 6.2424 59.4332 6.24128C59.4347 6.56338 59.4358 6.88548 59.4396 7.20769C59.495 7.26808 59.6061 7.38876 59.6619 7.44915C59.7036 7.40542 59.7868 7.31953 59.8283 7.2758C60.0215 7.43584 59.9116 7.65505 59.9031 7.85166C60.6138 7.84484 61.3319 7.88734 62.0404 7.83589C62.0935 7.80122 62.1995 7.733 62.2525 7.69844C62.3499 7.73188 62.4482 7.76555 62.5454 7.80022C62.8648 7.79328 63.1855 7.79239 63.5062 7.79127C63.4996 7.93778 63.4945 8.08418 63.4882 8.2308C63.0754 8.22509 62.6613 8.21738 62.2548 8.2799C61.9922 8.07981 61.64 8.14334 61.3231 8.13574C60.8358 8.15587 60.3331 8.07982 59.8611 8.21727C59.5806 8.28661 59.2728 8.26994 59.0254 8.12891C58.9658 8.25977 59.0569 8.55279 58.808 8.54149C57.8283 8.55279 56.8499 8.53377 55.8715 8.54719C55.7377 8.60982 55.6026 8.6691 55.469 8.72714C55.3276 9.10069 54.9223 9.34998 54.5774 9.57813C54.5345 10.1519 54.7908 10.6876 54.8905 11.2444C54.6974 11.2935 54.503 11.3441 54.3123 11.4C54.0384 11.9726 54.2063 12.7543 53.5725 13.1538C53.0865 13.4042 52.7648 13.9488 52.1093 13.8628C52.4426 14.1089 52.0184 14.0317 52.0626 13.8349C50.8771 13.742 49.8785 13.1258 48.8483 12.6562C48.8004 12.9133 48.7247 13.1662 48.6463 13.4178C49.0377 13.4838 49.3609 13.7388 49.4303 14.0944C49.5553 14.8696 49.3053 15.6392 49.3091 16.4163C49.3369 16.8727 49.116 17.2908 48.8408 17.6633C48.5996 17.9048 48.2196 17.6564 47.9305 17.6208C47.8647 17.7337 47.8005 17.8468 47.7374 17.9607C47.8194 18.2648 47.8548 18.5813 47.9697 18.8788C48.6148 19.5107 49.2018 20.1953 49.6525 20.9502C50.1165 21.8052 50.5299 22.6809 50.8911 23.5739C50.9264 23.7473 51.1107 23.8096 51.2725 23.8725C51.294 24.0514 51.3155 24.2301 51.3357 24.4114C51.3988 24.4931 51.4632 24.5746 51.5288 24.6574C51.568 25.7602 51.4152 26.8584 51.2218 27.9466C51.1021 28.4377 51.4263 28.9173 51.295 29.4117C51.3102 29.6648 51.1135 29.8559 51.021 30.0796C51.0034 30.6019 50.9743 31.1308 51.039 31.6522C51.0842 32.0347 51.4493 32.2806 51.6967 32.5659C51.9669 32.8199 52.1929 33.1609 52.6019 33.2514C52.987 33.3531 53.3544 33.5008 53.6937 33.6944C53.7972 33.9213 53.7783 34.162 53.7291 34.3977C52.9892 34.5185 52.2343 34.4582 51.4869 34.4684C50.911 34.4951 50.3974 34.2211 49.8379 34.164C49.2963 34.1519 48.636 34.39 48.2196 33.9605C48.3961 33.3647 48.4103 32.7247 48.7332 32.1688C48.8367 31.5392 48.64 30.9005 48.6814 30.2652C48.6198 30.2194 48.4959 30.1277 48.434 30.0816C48.4784 29.6668 48.2473 29.2976 48.1701 28.9007C48.1199 28.321 48.0603 27.7419 47.9846 27.1648C47.9252 26.8841 48.0893 26.627 48.3128 26.4402C48.333 26.1159 48.3825 25.7948 48.4176 25.4728C48.3633 25.2635 48.1752 25.1082 48.054 24.9293C47.6487 25.0805 47.1021 25.0088 46.8609 24.6574C46.2892 23.9037 45.7184 23.1499 45.1402 22.4004C44.9129 22.3871 44.6731 22.4083 44.461 22.3278C44.2163 22.1053 44.0886 21.8089 43.9323 21.5383C43.7087 21.7608 43.725 22.1018 43.4601 22.3044C42.8996 22.7809 42.7506 23.481 42.4577 24.0916C42.2332 24.4874 42.3595 24.9649 42.1092 25.3509C41.9754 25.5588 41.6396 25.6002 41.5512 25.8375C41.4351 26.0934 41.2987 26.3586 41.0273 26.5142C40.7332 26.6851 40.655 27.0097 40.5238 27.2779C40.4039 27.5252 40.5819 27.7845 40.5403 28.0385C40.3534 28.845 39.7739 29.5193 39.5303 30.309C39.4192 30.6646 39.26 31.065 38.7929 31.1409C38.2614 31.982 37.9686 33.011 38.2691 33.958C38.4534 34.2555 38.4433 34.5899 38.3865 34.9175C37.542 34.9758 36.6758 35.0764 35.8465 34.8673C35.6521 34.5261 35.6799 34.1246 35.7203 33.7559C35.9764 32.786 36.3161 31.8332 36.5243 30.8535C36.2643 30.6488 36.325 30.3358 36.3299 30.0617C36.3212 29.5506 36.7137 29.1413 36.9864 28.7219C37.0888 28.2913 37.0408 27.8286 37.2919 27.4335C37.5874 26.9391 37.8373 26.4046 38.2932 26.0053C38.3802 25.653 38.6733 25.3869 38.7917 25.0477C38.918 24.748 38.697 24.4438 38.7415 24.1374C38.8499 23.2078 39.0407 22.2875 39.2061 21.3648C38.8931 21.1333 38.994 20.7655 38.8942 20.4533C38.9435 20.3303 39.0053 20.213 39.0798 20.0988C39.0015 20.035 38.9247 19.9702 38.8463 19.9065C38.922 19.5785 38.9005 18.9913 39.4687 19.0979C39.504 18.012 39.0786 16.9607 39.2212 15.8735C39.297 15.9517 39.3713 16.0312 39.4472 16.1106L39.4068 15.7426C39.6441 15.6308 39.8966 15.5447 40.1618 15.5011C39.73 15.4508 39.3096 15.3535 38.8864 15.2662C38.7841 15.0279 38.8412 14.7741 38.8788 14.5303C39.043 13.7071 39.1036 12.8728 39.1376 12.0385C39.6161 11.8911 40.1438 12.0162 40.6109 11.8193C40.466 10.7758 40.4294 9.68662 40.8483 8.68554C41.1854 7.83321 41.8294 7.01119 42.8342 6.71157C43.3089 6.61102 43.906 6.49795 44.2416 6.90617C44.3337 6.83124 44.4259 6.75407 44.5181 6.67913C43.7519 5.33102 44.6671 3.36152 46.4058 3.08416ZM52.5375 8.93114C52.3355 9.04074 52.1373 9.16611 52.3497 9.36519C52.2462 9.41988 52.1424 9.47256 52.0376 9.52277C51.8735 9.63461 51.5048 9.69825 51.5478 9.92439C51.7321 10.1867 51.891 10.4624 52.0226 10.7485C52.4252 10.4556 52.7458 10.0617 52.963 9.64479C53.0084 9.60341 53.1007 9.52065 53.146 9.48027C53.1258 9.28903 53.0779 9.10214 52.9933 8.92555C52.8418 8.9279 52.689 8.93002 52.5375 8.93114Z" fill="#D5DAD6"/>
<path d="M56.2419 18.943C56.8199 18.2967 57.7542 17.9387 58.6807 17.9521C61.4998 17.9545 64.3202 17.951 67.1393 17.9533C68.5144 17.979 69.855 18.9308 70.0141 20.1679C66.1118 20.1564 62.2105 20.178 58.3097 20.1564C58.3059 22.4693 58.3008 24.7833 58.3097 27.0974C61.3043 27.093 64.2986 27.0884 67.2934 27.0996C67.2819 26.2709 67.297 25.4422 67.2846 24.6135C65.8038 24.621 64.3228 24.6236 62.8419 24.6135C61.6541 24.5732 60.7703 23.664 60.5028 22.6955C63.6868 22.6854 66.8695 22.6843 70.0532 22.6966C70.0396 24.1136 70.061 25.5319 70.0418 26.9489C70.004 28.1422 68.8451 29.1925 67.5169 29.3121C64.4453 29.3121 61.3724 29.311 58.3008 29.311C57.383 29.3052 56.5712 28.7919 56.0536 28.1511C55.7001 27.6981 55.6205 27.1356 55.5701 26.602C55.565 24.7008 55.5726 22.7984 55.5674 20.8971C55.5791 20.2079 55.7167 19.48 56.2419 18.943ZM74.867 18.0303C75.1842 17.9543 75.5147 17.9488 75.8419 17.9521C78.4476 17.9591 81.0546 17.9444 83.6604 17.9577C85.1375 18.0137 86.4352 19.1435 86.4921 20.4562C86.4948 22.5779 86.4948 24.7005 86.4921 26.8235C86.4656 28.1241 85.1653 29.3364 83.6745 29.3142C80.8087 29.303 77.9429 29.322 75.0768 29.3052C73.6477 29.1643 72.5506 27.9554 72.5405 26.7038C72.5203 24.7689 72.5431 22.8318 72.5292 20.8971C72.5178 20.3267 72.634 19.7407 72.9748 19.2486C73.3749 18.63 74.092 18.1971 74.867 18.0303ZM75.3166 20.0951C75.3216 22.4818 75.3052 24.8694 75.3242 27.2561C78.1231 27.2629 80.9235 27.255 83.7223 27.2592C83.7308 24.8705 83.7235 22.4815 83.7258 20.0914C80.9232 20.0905 78.1193 20.0862 75.3166 20.0951ZM3.00445 20.6632C3.06392 19.3693 4.28713 18.1535 5.77558 18.1031C8.55669 18.1008 11.3392 18.1008 14.1205 18.1042C15.6229 18.0909 16.8742 19.2932 16.9876 20.5827C16.7869 20.5974 16.5862 20.6083 16.3854 20.6107C13.0739 20.6074 9.76248 20.6118 6.45214 20.6083C6.45076 22.693 6.43838 24.7776 6.45846 26.8624C9.97331 26.8578 13.4868 26.8556 17.0015 26.8636C16.9018 28.1999 15.6316 29.3857 14.1005 29.4382C11.5806 29.4696 9.06067 29.4393 6.54064 29.4528C5.91319 29.4719 5.26681 29.4024 4.70135 29.1485C3.72672 28.7069 3.03728 27.8064 3.00344 26.829C3.00067 24.7734 2.99688 22.7187 3.00445 20.6632ZM19.6641 19.65C20.1274 18.754 21.1879 18.0887 22.3166 18.1009C25.0941 18.1032 27.8728 18.1009 30.6516 18.102C32.1021 18.1098 33.3797 19.2348 33.4821 20.5044C29.8183 20.5503 26.152 20.511 22.4872 20.5234C22.4707 21.1766 22.4784 21.8297 22.4771 22.4839C25.2015 22.4916 27.9272 22.4861 30.6516 22.4861C31.4595 22.5141 32.308 22.7435 32.8583 23.297C33.4768 23.7869 33.7383 24.5329 33.7585 25.2509C33.7722 25.9678 33.7722 26.6882 33.6409 27.3981C33.3404 28.5479 32.0994 29.4046 30.7752 29.4415C28.1267 29.4638 25.4765 29.4438 22.8279 29.4527C22.2032 29.464 21.5568 29.3845 21.0024 29.115C20.1237 28.7089 19.4925 27.8922 19.4055 27.0156C23.1349 27.0315 26.8655 27.0257 30.5948 27.018C30.6037 26.3221 30.5986 25.6266 30.5986 24.931C27.8388 24.9143 25.0778 24.9287 22.3166 24.9241C20.7298 24.9354 19.326 23.6435 19.3686 22.2423C19.4242 21.3789 19.1996 20.4519 19.6641 19.65ZM87.3543 18.3336C87.7052 18.3258 88.06 18.3135 88.4097 18.3605C88.2468 18.3974 88.0812 18.4164 87.9148 18.4186C87.8933 18.7554 87.8908 19.092 87.8959 19.4284C87.8593 19.4284 87.7874 19.4284 87.752 19.4295C87.7545 19.084 87.7583 18.7384 87.7532 18.3939C87.6547 18.4008 87.4591 18.4164 87.3618 18.423L87.3543 18.3336ZM88.6065 18.3211C88.6811 18.3246 88.8325 18.3313 88.9085 18.3346C89.0158 18.6376 89.1421 18.9351 89.2986 19.2225C89.4451 18.9329 89.541 18.6241 89.7026 18.3425C89.7733 18.3335 89.9147 18.3145 89.9851 18.3056C89.946 18.7171 90.1063 19.1723 89.8554 19.547C89.8099 19.1824 89.8288 18.8154 89.8022 18.4497C89.6102 18.7909 89.5195 19.1744 89.2683 19.4899C89.0763 19.1657 88.9943 18.7964 88.7646 18.4903C88.7496 18.8169 88.757 19.1446 88.752 19.472L88.6169 19.4585C88.6167 19.0796 88.6104 18.7003 88.6065 18.3211Z" fill="#D5DAD6"/>
</g>
<defs>
<clipPath id="clip0_73_103">
<rect width="87" height="32" fill="white"/>
</clipPath>
</defs>
</svg>
