<svg width="35" height="35" viewBox="0 0 35 35" fill="none" xmlns="http://www.w3.org/2000/svg">
<path d="M34.9999 3.33333V1.66667C34.9999 1.20667 34.6274 0.833333 34.1666 0.833333H30.8333C30.5033 0.833333 30.2383 0.855 30 0.916667V0.833333C30 0.373333 29.6275 0 29.1666 0H24.1666C22.7216 0 22.1991 0.82 21.8925 1.66667H21.2158C21.0216 1.4075 20.8333 1.07167 20.8333 0.833333C20.8333 0.373333 20.4608 0 20 0H14.1666C13.7408 0 13.3833 0.3275 13.3375 0.75C13.3183 0.925 12.9641 1.66667 12.4133 1.66667H10.13C10.0758 1.6025 9.99749 1.48333 9.92999 1.33083C9.79665 1.02833 9.49665 0.833333 9.16665 0.833333H0.833332C0.372499 0.833333 0 1.20667 0 1.66667V8.33333C0 10.6858 0.687499 13.6642 0.832499 14.265L0.825832 15.5275L0.260833 16.0617C0.0941667 16.2183 0 16.4375 0 16.6667V20C0 20.2217 0.0875001 20.4333 0.244166 20.5892L0.833332 21.1783V24.865L0.0433333 27.2367C-0.00749995 27.3875 -0.0133332 27.5483 0.0258334 27.7025L0.799999 30.8008L0.0441666 33.0708C-0.0416666 33.325 0.00166672 33.605 0.158333 33.8217C0.314166 34.0383 0.565833 34.1667 0.833332 34.1667H12.5C12.7216 34.1667 12.9333 34.0792 13.0891 33.9225L13.1641 33.8475C13.6066 34.4525 14.2225 35 15 35H17.5C18.1133 35 18.65 34.7325 19.1225 34.4958C19.4458 34.3333 19.78 34.1667 20 34.1667H24.1666C24.3883 34.1667 24.6 34.0792 24.7558 33.9225L24.9583 33.72C25.0108 33.7867 25.0608 33.8525 25.11 33.9158C25.5191 34.4492 25.9416 35 26.6666 35H30.8333C31.2941 35 31.6666 34.6275 31.6666 34.1667V33.5675L33.965 34.1408C34.2141 34.205 34.4783 34.1467 34.6816 33.9875C34.8841 33.8292 35.0016 33.585 34.9999 33.3267C34.9991 33.245 34.9474 25.0683 34.9999 20.8433C35.0024 20.6183 34.9141 20.4025 34.7558 20.2433L34.1666 19.655V15.8333C34.1666 15.6125 34.0791 15.4 33.9225 15.2442L33.5141 14.8358L34.0183 13.8275L34.7558 13.09C34.9124 12.9333 34.9999 12.7208 34.9999 12.5L34.9874 8.325C34.9874 8.2575 34.9791 8.19083 34.9633 8.125L34.2166 5.09833L34.9124 3.70667C34.9699 3.59083 34.9999 3.4625 34.9999 3.33333ZM25.0741 6.66667L27.6108 8.33333L26.765 13.3333L20 8.33333L25.0741 6.66667ZM9.16665 28.3333L5.83332 25.8333L7.49999 20L14.1666 26.6667L9.16665 28.3333ZM26.8333 27.5H22.9441L5.83332 7.43833L8.94415 6.66667L29.1666 22.0983L26.8333 27.5Z" fill="#C10202"/>
</svg>
