<svg width="13" height="14" viewBox="0 0 13 14" fill="none" xmlns="http://www.w3.org/2000/svg">
<g opacity="0.8">
<path d="M10.2153 2.97276L10.2153 2.97275L10.266 2.95463C10.266 2.95463 10.266 2.95463 10.266 2.95463C10.2775 2.95472 10.2891 2.95742 10.3001 2.9629C10.3112 2.96839 10.3216 2.97671 10.3303 2.98782L10.3303 2.98784C10.3379 2.99761 10.3439 3.00926 10.3475 3.02224C10.3511 3.03522 10.3522 3.04897 10.3506 3.06258C10.3491 3.07618 10.3449 3.08901 10.3387 3.10032C10.3325 3.11162 10.3245 3.121 10.3155 3.12824L10.3155 3.12825C10.3065 3.13547 10.2967 3.14046 10.2867 3.14334C10.2767 3.14622 10.2665 3.14704 10.2564 3.14584C10.2463 3.14464 10.2362 3.1414 10.2266 3.13598C10.2171 3.13055 10.2081 3.12293 10.2005 3.11318L10.2005 3.11317C10.1929 3.10339 10.1869 3.09175 10.1833 3.07877C10.1797 3.06578 10.1786 3.05203 10.1801 3.03843C10.1817 3.02482 10.1858 3.012 10.192 3.00068C10.1982 2.98938 10.2063 2.98 10.2153 2.97276ZM0.5 2.57312C0.5 1.42614 1.42269 0.5 2.5303 0.5H10.3611C11.4687 0.5 12.3914 1.42614 12.3914 2.57312V10.5364C12.3914 11.6834 11.4687 12.6095 10.3611 12.6095H2.5303C1.42269 12.6095 0.5 11.6834 0.5 10.5364V2.57312ZM10.3611 0.692177H2.5303C1.4836 0.692177 0.672337 1.52933 0.672337 2.57312V10.5364C0.672337 11.5801 1.48349 12.4176 2.5303 12.4176H10.3611C11.4078 12.4176 12.2192 11.5802 12.2192 10.5364V2.57312C12.2192 1.52922 11.4076 0.692177 10.3611 0.692177ZM3.31159 6.6147C3.31159 4.86535 4.7164 3.44879 6.41627 3.44879C8.11613 3.44879 9.52094 4.86535 9.52094 6.6147C9.52094 8.364 8.11617 9.78037 6.41627 9.78037C4.71636 9.78037 3.31159 8.364 3.31159 6.6147ZM9.34883 6.6147C9.34883 4.97329 8.05113 3.64003 6.41627 3.64003C4.78141 3.64003 3.4837 4.97329 3.4837 6.6147C3.4837 8.25635 4.78165 9.58843 6.41627 9.58843C8.05088 9.58843 9.34883 8.25635 9.34883 6.6147Z" fill="white" stroke="white"/>
</g>
</svg>
