<svg width="15" height="16" viewBox="0 0 15 16" fill="none" xmlns="http://www.w3.org/2000/svg">
<path d="M7.48703 0C3.54026 0 0.307049 3.08684 0 7.00938L4.02678 8.69815C4.36788 8.46124 4.78034 8.32323 5.22362 8.32323C5.26362 8.32323 5.30309 8.32431 5.34201 8.32649L7.13295 5.69335V5.6564C7.13295 4.07196 8.40385 2.78256 9.96612 2.78256C11.5284 2.78256 12.7993 4.07196 12.7993 5.6564C12.7993 7.24085 11.5284 8.53079 9.96612 8.53079C9.9445 8.53079 9.92342 8.53025 9.90179 8.5297L7.34756 10.3777C7.34918 10.4119 7.35026 10.4461 7.35026 10.4798C7.35026 11.6698 6.39614 12.6375 5.22362 12.6375C4.19436 12.6375 3.33321 11.892 3.1386 10.9053L0.258397 9.69739C1.15035 12.8962 4.04786 15.2413 7.48703 15.2413C11.6365 15.2413 15 11.829 15 7.62066C15 3.41177 11.6365 0 7.48703 0ZM4.70812 11.5631L3.78535 11.1762C3.94861 11.5218 4.23187 11.8109 4.60758 11.9695C5.41953 12.3129 6.35581 11.9222 6.69421 11.098C6.85801 10.6991 6.85909 10.259 6.69692 9.85909C6.53474 9.45918 6.22823 9.14729 5.83523 8.98102C5.44439 8.81638 5.02598 8.82236 4.65839 8.96309L5.61197 9.363C6.21093 9.61621 6.4942 10.3139 6.24445 10.9214C5.99524 11.5288 5.30709 11.8163 4.70812 11.5631ZM11.854 5.65646C11.854 4.6007 11.007 3.7411 9.96634 3.7411C8.92518 3.7411 8.0781 4.6007 8.0781 5.65646C8.0781 6.71221 8.92518 7.57127 9.96634 7.57127C11.007 7.57127 11.854 6.71221 11.854 5.65646ZM8.5511 5.6532C8.5511 4.8588 9.18628 4.21492 9.96904 4.21492C10.7523 4.21492 11.3875 4.8588 11.3875 5.6532C11.3875 6.44759 10.7523 7.09148 9.96904 7.09148C9.18628 7.09148 8.5511 6.44759 8.5511 5.6532Z" fill="white" fill-opacity="0.8"/>
</svg>
