<svg width="15" height="9" viewBox="0 0 15 9" fill="none" xmlns="http://www.w3.org/2000/svg">
<g opacity="0.6">
<path d="M12.492 0C12.083 0 11.7388 0.0784658 11.5705 0.635395C11.3461 1.37797 10.368 3.011 9.81358 3.82909C9.4189 4.41145 8.89577 4.00631 8.86436 3.75672C8.78515 3.12742 8.86436 0.723497 8.86436 0.723497C8.86436 0.250068 8.55704 0.00609632 8.21752 0.00609632H5.68086C5.2652 0.00609632 5.0561 0.487554 5.65218 0.839131C6.16909 1.144 6.3081 1.1625 6.3081 1.59193V4.31084C6.3081 4.54325 5.94076 4.80431 5.63486 4.50592C5.17714 4.05944 3.60194 0.899701 3.60194 0.899701C3.60194 0.899701 3.18625 0.00609632 2.07766 0.00609632H0.341553C0.149619 0.00609632 -0.109481 0.243487 0.0492797 0.53864C0.0492797 0.53864 1.93864 4.88946 3.66794 6.67666C5.39724 8.46387 6.83613 8.67783 6.83613 8.67783H8.36273C8.36273 8.67783 8.89736 8.69042 8.89736 8.1681V6.67666C8.87405 6.32094 9.37652 6.05196 9.81358 6.504L11.4243 8.16987C11.822 8.56802 12.2841 8.67783 12.7283 8.67783H14.6375C14.9315 8.67783 15.2243 8.31896 14.7482 7.86506L12.4329 5.34255C12.4329 5.34255 12.0633 5.0279 12.3801 4.54963C12.697 4.07137 14.2974 1.10108 14.3766 0.899701C14.59 0.472348 14.4421 0.00609632 13.9111 0.00609632C13.9111 0.00609632 12.5598 -4.50386e-07 12.492 0V0Z" fill="white"/>
</g>
</svg>
